<?xml version="1.0" encoding="utf-8"?>
<!-- Generator: Adobe Illustrator 24.3.0, SVG Export Plug-In . SVG Version: 6.00 Build 0)  -->
<svg version="1.1" id="Layer_1" xmlns="http://www.w3.org/2000/svg" xmlns:xlink="http://www.w3.org/1999/xlink" x="0px" y="0px"
	 viewBox="0 0 64 64" enable-background="new 0 0 64 64" xml:space="preserve">
<path d="M45.4,6.8c-0.2-0.2-0.3-0.2-0.4-0.2c0,0-0.1,0-0.1,0c-2.2,0.5-5.8,9-8,15.7C42.1,16.6,47.6,8.9,45.4,6.8z"/>
<path d="M48.2,2.7c-1.6-0.9-3.1-1-4.6-0.3c-5.7,2.7-9,15.6-9.7,18.4l0.9,0.9c1.6-4.9,5.7-16.3,9.6-17.3c0.9-0.2,1.8,0,2.5,0.8
	c4.3,4.4-5.8,15.7-9.3,19.3l1,1c4.2-4.2,12.8-13.9,12-19.6C50.4,4.6,49.6,3.5,48.2,2.7z"/>
<path d="M40.2,34l0.1,0.1c0.4,0.4,1.1,0.4,1.6,0l0.3-0.3c0.4-0.4,0.4-1.2,0-1.6L31.8,21.8c-0.4-0.4-1.1-0.4-1.5,0L30,22.1
	c-0.4,0.4-0.4,1.2,0,1.6L40.2,34L40.2,34C40.2,34,40.2,34,40.2,34z"/>
<path d="M40.1,27.2l0.4,0.4l11.7-8.9c1.1-0.8,1.7-1.7,1.7-2.6c0.1-1-0.4-2-1.3-2.9c-0.4-0.4-0.8-0.7-1.2-0.9
	C48.6,18.4,42.4,24.9,40.1,27.2z"/>
<path d="M23.5,28.7c-0.5,0.5-0.5,1.4,0,1.9l10.1,10.1c0.5,0.5,1.3,0.5,1.8,0c0.5-0.5,0.5-1.4,0-1.9L25.3,28.7
	C24.8,28.2,23.9,28.2,23.5,28.7z"/>
<path d="M28.6,25.4c-0.5-0.5-1.3-0.5-1.8,0c-0.5,0.5-0.5,1.4,0,1.9l10.1,10.1c0.5,0.5,1.3,0.5,1.8,0c0.5-0.5,0.5-1.4,0-1.9
	L28.6,25.4L28.6,25.4z"/>
<path d="M45.7,43.9c0.3-0.3,0.4-0.7,0.3-1c-0.1-0.4-0.3-0.7-0.7-0.9l-5.7-2.6c-0.5,0.3-1.1,0.5-1.7,0.5c0,0.4-0.1,0.8-0.2,1.1
	l6.7,3.1C44.8,44.3,45.3,44.2,45.7,43.9z"/>
<path d="M13.9,61.2c-0.3,0-0.6,0-0.9,0c-0.1,0-0.3,0-0.4,0c1.6,0.8,3.4,1,5.1,0.6c2.3-0.5,4.2-2.1,5.2-4.2l5.7-11.7l-7.4,11
	C19.5,59.4,16.9,60.9,13.9,61.2z"/>
<path d="M34.5,43.3c0,0.6-0.2,1.2-0.5,1.8l1.9,4.8c0.1,0.4,0.4,0.6,0.8,0.7c0.4,0.1,0.7,0,1-0.3c0.3-0.3,0.4-0.8,0.2-1.2l-2.4-5.9
	C35.2,43.2,34.9,43.3,34.5,43.3z"/>
<path d="M57.7,16.4c0.2-2.3-0.6-4.6-2.2-6.3c-0.8-0.8-1.8-1.4-2.8-1.8c-0.1,0.6-0.3,1.2-0.5,1.9c0.7,0.3,1.3,0.8,1.9,1.4
	c1.4,1.4,2.1,3,1.9,4.6c-0.1,1.1-0.6,2.7-2.6,4.2L42,29.1L43,30l11.4-7.8C56.3,20.9,57.5,18.8,57.7,16.4z"/>
<path d="M20.1,32.1c-0.5,0.5-0.5,1.4,0,1.9l10.1,10.1c0.5,0.5,1.3,0.5,1.8,0c0.5-0.5,0.5-1.4,0-1.9L21.9,32.1
	C21.4,31.6,20.6,31.6,20.1,32.1z"/>
<path d="M9.1,51c-0.1,1,0.4,2,1.3,2.9c0.9,0.9,1.9,1.4,2.9,1.3c0.9-0.1,1.8-0.7,2.6-1.7l8.9-11.8l-2.3-2.3l-11.7,8.9
	C9.7,49.1,9.2,50,9.1,51z"/>
<path d="M8.6,44.8c-1.9,1.3-3.1,3.4-3.4,5.7c-0.2,2.3,0.6,4.6,2.2,6.3c1.6,1.7,3.9,2.5,6.2,2.3c2.3-0.2,4.4-1.5,5.7-3.4l7.8-11.5
	l-0.9-0.9l-8.7,11.5c-1.5,2-3.1,2.5-4.1,2.6c-0.1,0-0.2,0-0.3,0c-1.5,0-3-0.7-4.2-2c-1.4-1.4-2.1-3-1.9-4.6c0.1-1.1,0.6-2.7,2.6-4.2
	L21,37.9L20,37L8.6,44.8z"/>
</svg>
