<?xml version="1.0" encoding="UTF-8" standalone="no"?>
<svg width="20" height="20" viewBox="0 0 512 512" fill="#ffffff"
    xmlns="http://www.w3.org/2000/svg">
    <path d="M328.6 399.3L322.6 327.3L316.6 255.3L312.1 201.2L327.3 163.1V163V162.9C327.4 162.7 327.5 162.4 327.5 162.2C327.5 162.1 327.5 162 327.6 161.9C327.7 161.7 327.7 161.5 327.7 161.3C327.7 161.2 327.7 161.1 327.7 161C327.7 160.8 327.7 160.6 327.7 160.3C327.7 160.2 327.7 160.1 327.7 160C327.7 160 327.7 160 327.7 159.9V127.9V96V64C327.7 59.6 324.1 56 319.7 56H303C299.2 33.3 279.4 16 255.7 16C232 16 212.2 33.3 208.4 56H192C187.6 56 184 59.6 184 64V96V128V160C184 160 184 160 184 160.1C184 160.2 184 160.3 184 160.4C184 160.6 184 160.8 184 161.1C184 161.2 184 161.3 184 161.4C184 161.6 184.1 161.8 184.1 162C184.1 162.1 184.1 162.2 184.2 162.3C184.3 162.5 184.3 162.8 184.4 163V163.1V163.2L199.6 201.3L195.1 255.4L189.1 327.4L183.1 399.4L175.8 487.4C175.6 489.6 176.4 491.8 177.9 493.5C179.4 495.1 181.5 496.1 183.8 496.1H231.8H279.8H327.8C330 496.1 332.2 495.2 333.7 493.5C335.2 491.9 336 489.6 335.8 487.4L328.6 399.3ZM200 104H216.8C216.3 106.6 216 109.3 216 112C216 114.7 216.3 117.4 216.8 120H200V104ZM312 120H295.2C295.7 117.4 296 114.7 296 112C296 109.3 295.7 106.6 295.2 104H312V120ZM280 112C280 125.2 269.2 136 256 136C242.8 136 232 125.2 232 112C232 98.8 242.8 88 256 88C269.2 88 280 98.8 280 112ZM224 136C231.3 145.7 242.9 152 256 152C269.1 152 280.7 145.7 288 136H312V152H256H200V136H224ZM264 320H248V304H264V320ZM272 288H240C235.6 288 232 291.6 232 296V320H206L210.7 264H301.3L306 320H280V296C280 291.6 276.4 288 272 288ZM215.4 208H296.7L300 248H212L215.4 208ZM308.2 168L298.6 192H213.4L203.8 168H308.2ZM204.7 336H240H272H307.3L312 392H200L204.7 336ZM256 32C270.9 32 283.4 42.2 287 56H225C228.6 42.2 241.1 32 256 32ZM216 72H256H296H312V88H288C280.7 78.3 269.1 72 256 72C242.9 72 231.3 78.3 224 88H200V72H216ZM240 480V456C240 447.2 247.2 440 256 440C264.8 440 272 447.2 272 456V480H240ZM288 480V456C288 438.4 273.6 424 256 424C238.4 424 224 438.4 224 456V480H192.7L198.7 408H313.3L319.3 480H288Z"/>
    <path d="M152 112C152 107.6 148.4 104 144 104H48C43.6 104 40 107.6 40 112C40 116.4 43.6 120 48 120H144C148.4 120 152 116.4 152 112Z" />
    <path d="M146.3 56.3003L66.3003 32.3003C62.1003 31.0003 57.6003 33.4003 56.3003 37.7003C55.0003 41.9003 57.4003 46.4003 61.7003 47.7003L141.7 71.7003C142.5 71.9003 143.2 72.0003 144 72.0003C147.4 72.0003 150.6 69.8003 151.7 66.3003C152.9 62.1003 150.5 57.6003 146.3 56.3003Z" />
    <path d="M141.7 152.3L61.7001 176.3C57.5001 177.6 55.1001 182 56.3001 186.3C57.3001 189.8 60.5001 192 64.0001 192C64.8001 192 65.5001 191.9 66.3001 191.7L146.3 167.7C150.5 166.4 152.9 162 151.7 157.7C150.5 153.4 145.9 151.1 141.7 152.3Z"/>
    <path d="M464 104H368C363.6 104 360 107.6 360 112C360 116.4 363.6 120 368 120H464C468.4 120 472 116.4 472 112C472 107.6 468.4 104 464 104Z" />
    <path d="M368 72.0001C368.8 72.0001 369.5 71.9001 370.3 71.7001L450.3 47.7001C454.5 46.4001 456.9 42.0001 455.7 37.7001C454.4 33.5001 450 31.1001 445.7 32.3001L365.7 56.3001C361.5 57.6001 359.1 62.0001 360.3 66.3001C361.4 69.8001 364.6 72.0001 368 72.0001Z"/>
    <path d="M450.3 176.3L370.3 152.3C366.1 151 361.6 153.4 360.3 157.7C359 161.9 361.4 166.4 365.7 167.7L445.7 191.7C446.5 191.9 447.2 192 448 192C451.4 192 454.6 189.8 455.7 186.3C456.9 182.1 454.5 177.6 450.3 176.3Z"/>
</svg>
